<svg width="653" height="425" viewBox="0 0 653 425" fill="none" xmlns="http://www.w3.org/2000/svg">
<g filter="url(#filter0_i_799_575)">
<path d="M5.05883 137.077H9.52355L12.3647 124.419L18.8589 142.352L23.3236 130.748L25.7589 111.761L31.4413 102.267H39.5589V59.0175L41.5883 42.1397L46.4589 33.7007V12.6035L54.1707 7.32918L57.8237 21.0424H61.4766L65.1296 33.7007L72.4355 21.0424L80.1473 24.207H118.706L120.33 7.32918L126.418 1L138.594 7.32918H149.959L154.424 28.4264H163.353L169.036 42.1397L179.183 36.8653L192.983 48.4688L204.348 36.8653H211.248L216.118 46.3591L218.148 74.8404L229.106 86.4439L233.977 123.364L248.183 133.913L270.507 137.077L277.812 142.352L285.524 137.077L309.065 142.352L321.242 137.077H337.071L349.654 139.187L358.989 123.364V71.6758L376.442 52.6883L391.866 56.9077L397.142 80.1147L403.636 96.9925H417.03L432.454 91.7182L442.601 104.377H453.56L453.63 104.404L465.331 113.87H478.319L498.207 118.09L501.86 143.406L503.078 178.217L516.472 182.436L519.719 208.808L518.095 240.454L537.984 245.728L550.16 260.496L571.672 245.728H589.531H590.343L600.896 230.96L609.825 245.728H625.654L637.019 260.496L632.555 285.813V314.294L628.09 334.337L629.713 365.983L634.584 352.269L639.86 356.489L637.019 373.367L639.86 388.135L647.978 396.574L651.631 412.397L644.325 424L629.713 417.671L622.407 400.793H604.549L590.343 396.574L582.631 377.586L571.672 373.367L567.613 361.763H555.843L544.072 344.885L533.925 356.489L520.937 373.367L509.166 383.915L499.425 377.586H488.06L474.666 361.763H453.154L435.295 373.367L417.842 356.489L407.695 367.037L393.489 356.489L378.066 352.269L366.701 343.83L350.466 338.556L330.983 312.185L318.401 307.965L302.977 286.868L287.148 292.142L273.348 281.594L262.795 299.526L254.677 303.746H246.965L244.936 294.252L245.748 281.594L251.024 265.771L241.689 277.374L230.324 281.594L220.177 303.746L204.348 299.526L193.795 294.252L181.212 292.142L174.312 281.594L165.383 277.374L160.106 256.277L146.306 249.948L118.706 243.618L93.5414 249.948L84.2061 235.18L77.3061 216.192L86.2355 192.985H91.512V178.217H70.0002L65.1296 165.559L55.7943 162.394L52.1413 152.9L48.0825 159.229L41.5883 162.394H36.3119H31.4413L24.5412 169.778L14.8 162.394H9.52355L3.4353 169.778L1 164.504L1.81177 152.9L5.05883 137.077Z" fill="url(#paint0_linear_799_575)"/>
</g>
<path d="M589.531 245.728H590.343M442.601 104.377L432.454 91.7182L417.03 96.9925H403.636L397.142 80.1147L391.866 56.9077L376.442 52.6883L358.989 71.6758V123.364L349.654 139.187L337.071 137.077H321.242L309.065 142.352L285.524 137.077L277.812 142.352L270.507 137.077L248.183 133.913L233.977 123.364L229.106 86.4439L218.148 74.8404L216.118 46.3591L211.248 36.8653H204.348L192.983 48.4688L179.183 36.8653L169.036 42.1397L163.353 28.4264H154.424L149.959 7.32918H138.594L126.418 1L120.33 7.32918L118.706 24.207H80.1473L72.4355 21.0424L65.1296 33.7007L61.4766 21.0424H57.8237L54.1707 7.32918L46.4589 12.6035V33.7007L41.5883 42.1397L39.5589 59.0175V102.267H31.4413L25.7589 111.761L23.3236 130.748L18.8589 142.352L12.3647 124.419L9.52355 137.077H5.05883L1.81177 152.9L1 164.504L3.4353 169.778L9.52355 162.394H14.8L24.5412 169.778L31.4413 162.394H36.3119H41.5883L48.0825 159.229L52.1413 152.9L55.7943 162.394L65.1296 165.559L70.0002 178.217H91.512V192.985H86.2355L77.3061 216.192L84.2061 235.18L93.5414 249.948L118.706 243.618L146.306 249.948L160.106 256.277L165.383 277.374L174.312 281.594L181.212 292.142L193.795 294.252L204.348 299.526L220.177 303.746L230.324 281.594L241.689 277.374L251.024 265.771L245.748 281.594L244.936 294.252L246.965 303.746H254.677L262.795 299.526L273.348 281.594L287.148 292.142L302.977 286.868L318.401 307.965L330.983 312.185L350.466 338.556L366.701 343.83L378.066 352.269L393.489 356.489L407.695 367.037L417.842 356.489L435.295 373.367L453.154 361.763H474.666L488.06 377.586H499.425L509.166 383.915L520.937 373.367L533.925 356.489L544.072 344.885L555.843 361.763H567.613L571.672 373.367L582.631 377.586L590.343 396.574L604.549 400.793H622.407L629.713 417.671L644.325 424L651.631 412.397L647.978 396.574L639.86 388.135L637.019 373.367L639.86 356.489L634.584 352.269L629.713 365.983L628.09 334.337L632.555 314.294V285.813L637.019 260.496L625.654 245.728H609.825L600.896 230.96L590.343 245.728M442.601 104.377H453.56L453.63 104.404M442.601 104.377L453.63 104.404M453.63 104.404L465.331 113.87H478.319L498.207 118.09L501.86 143.406L503.078 178.217L516.472 182.436L519.719 208.808L518.095 240.454L537.984 245.728L550.16 260.496L571.672 245.728H590.343" stroke="black"/>
<g filter="url(#filter1_i_799_575)">
<path d="M280.844 196.08V215.68C280.844 218.4 280.057 220.52 278.484 222.04C276.911 223.533 274.804 224.28 272.164 224.28C269.497 224.28 267.337 223.507 265.684 221.96C264.057 220.413 263.244 218.253 263.244 215.48H268.844C268.87 216.68 269.15 217.613 269.684 218.28C270.244 218.947 271.044 219.28 272.084 219.28C273.097 219.28 273.871 218.96 274.404 218.32C274.937 217.68 275.204 216.8 275.204 215.68V196.08H280.844ZM304.496 218.68H293.376L291.536 224H285.656L295.696 196.04H302.216L312.256 224H306.336L304.496 218.68ZM302.976 214.2L298.936 202.52L294.896 214.2H302.976ZM353.329 196.08L345.529 224H338.929L333.689 204.12L328.209 224L321.649 224.04L314.129 196.08H320.129L325.049 217.76L330.729 196.08H336.969L342.329 217.64L347.289 196.08H353.329ZM374.106 218.68H362.986L361.146 224H355.266L365.306 196.04H371.826L381.866 224H375.946L374.106 218.68ZM372.586 214.2L368.546 202.52L364.506 214.2H372.586Z" fill="#FFFDFA"/>
</g>
<defs>
<filter id="filter0_i_799_575" x="0.49231" y="0.383789" width="656.673" height="426.246" filterUnits="userSpaceOnUse" color-interpolation-filters="sRGB">
<feFlood flood-opacity="0" result="BackgroundImageFix"/>
<feBlend mode="normal" in="SourceGraphic" in2="BackgroundImageFix" result="shape"/>
<feColorMatrix in="SourceAlpha" type="matrix" values="0 0 0 0 0 0 0 0 0 0 0 0 0 0 0 0 0 0 127 0" result="hardAlpha"/>
<feMorphology radius="8" operator="erode" in="SourceAlpha" result="effect1_innerShadow_799_575"/>
<feOffset dx="5" dy="2"/>
<feGaussianBlur stdDeviation="125"/>
<feComposite in2="hardAlpha" operator="arithmetic" k2="-1" k3="1"/>
<feColorMatrix type="matrix" values="0 0 0 0 0.160784 0 0 0 0 0.54902 0 0 0 0 0.388235 0 0 0 1 0"/>
<feBlend mode="normal" in2="shape" result="effect1_innerShadow_799_575"/>
</filter>
<filter id="filter1_i_799_575" x="263.244" y="196.04" width="119.622" height="29.2397" filterUnits="userSpaceOnUse" color-interpolation-filters="sRGB">
<feFlood flood-opacity="0" result="BackgroundImageFix"/>
<feBlend mode="normal" in="SourceGraphic" in2="BackgroundImageFix" result="shape"/>
<feColorMatrix in="SourceAlpha" type="matrix" values="0 0 0 0 0 0 0 0 0 0 0 0 0 0 0 0 0 0 127 0" result="hardAlpha"/>
<feOffset dx="1" dy="1"/>
<feGaussianBlur stdDeviation="2"/>
<feComposite in2="hardAlpha" operator="arithmetic" k2="-1" k3="1"/>
<feColorMatrix type="matrix" values="0 0 0 0 0.203922 0 0 0 0 0.203922 0 0 0 0 0.231373 0 0 0 1 0"/>
<feBlend mode="normal" in2="shape" result="effect1_innerShadow_799_575"/>
</filter>
<linearGradient id="paint0_linear_799_575" x1="1.00002" y1="90.8693" x2="672.13" y2="244.695" gradientUnits="userSpaceOnUse">
<stop offset="0.00899963" stop-color="#81C780"/>
<stop offset="0.684" stop-color="#135B35"/>
</linearGradient>
</defs>
</svg>
