<svg width="634" height="279" viewBox="0 0 634 279" fill="none" xmlns="http://www.w3.org/2000/svg">
<g filter="url(#filter0_i_799_578)">
<path d="M154.266 27.4334H134.617L132.83 20.2744L130.687 15.8688L126.4 13.1153H122.47H112.466L95.675 7.60835L78.169 15.8688H74.9536L70.6665 18.6223L60.6631 31.839L46.7298 51.1133L28.8666 61.5765L9.9316 66.5328L7.96665 73.9672L6.0017 81.4016L2.78632 86.9086L1 92.4155L3.85811 99.5746L8.50254 105.082L17.0769 112.791L30.6529 120.501L70.6665 125.457L84.957 129.863L97.4613 125.457L125.685 129.863L138.904 132.066L148.907 137.573L154.266 139.225L159.982 144.732L172.844 148.586L185.705 140.326L200.711 137.573L210.714 144.732L223.575 151.34L238.223 173.918L250.728 179.425L256.444 182.73H260.374L267.162 190.439L272.163 194.845L277.165 193.744L293.242 186.585L306.818 193.744L334.685 205.308L342.544 214.119L348.618 225.684L372.197 233.944L387.56 251.016L408.281 253.769L428.645 258.726L431.86 263.131L436.505 266.435H445.436L454.725 263.131L463.657 268.087L467.587 271.392L472.588 273.044L481.163 271.392L487.236 273.044L495.811 276.899L506.171 278L531.894 271.392L542.612 273.044L551.544 269.74H559.404L563.691 268.087H570.122H576.552L588.699 269.74H596.559L599.06 268.087L598.345 264.783V260.378L594.415 251.567L596.559 248.813L601.382 251.567H608.349H611.921L614.422 247.161L619.067 245.509L621.568 237.799L614.422 225.133L619.067 222.93L627.284 225.133L633 220.728V209.163L617.638 179.976L606.92 150.789L598.345 141.978L585.127 107.835L576.195 104.531V101.227V91.3141L573.694 73.1412L564.048 62.1272L542.612 68.1849L533.323 57.7217L514.031 81.4016H509.744L500.455 68.1849L494.739 71.4891L489.737 68.1849L466.872 34.5924H459.012L451.51 39.5487L445.079 50.5626L432.575 54.9682L424.358 62.1272L421.142 50.5626L428.645 34.5924L425.787 27.9841L421.142 24.6799L419.356 13.666L413.283 5.40557H407.209H398.635H390.418L387.56 1H381.843L366.838 10.3618L353.977 21.3757H348.618H345.045L342.187 15.8688H337.185L328.611 13.666L321.823 10.3618L315.392 13.666L306.818 18.6223L296.815 15.8688L288.24 13.666L281.809 10.3618H268.948L261.445 13.666L260.374 21.3757L263.232 30.1869L260.374 34.5924H255.372L236.08 21.3757L221.075 24.6799L212.143 21.3757L179.275 27.4334L164.27 30.1869L154.266 27.4334Z" fill="url(#paint0_linear_799_578)"/>
</g>
<path d="M154.266 27.4334H134.617L132.83 20.2744L130.687 15.8688L126.4 13.1153H122.47H112.466L95.675 7.60835L78.169 15.8688H74.9536L70.6665 18.6223L60.6631 31.839L46.7298 51.1133L28.8666 61.5765L9.9316 66.5328L7.96665 73.9672L6.0017 81.4016L2.78632 86.9086L1 92.4155L3.85811 99.5746L8.50254 105.082L17.0769 112.791L30.6529 120.501L70.6665 125.457L84.957 129.863L97.4613 125.457L125.685 129.863L138.904 132.066L148.907 137.573L154.266 139.225L159.982 144.732L172.844 148.586L185.705 140.326L200.711 137.573L210.714 144.732L223.575 151.34L238.223 173.918L250.728 179.425L256.444 182.73H260.374L267.162 190.439L272.163 194.845L277.165 193.744L293.242 186.585L306.818 193.744L334.685 205.308L342.544 214.119L348.618 225.684L372.197 233.944L387.56 251.016L408.281 253.769L428.645 258.726L431.86 263.131L436.505 266.435H445.436L454.725 263.131L463.657 268.087L467.587 271.392L472.588 273.044L481.163 271.392L487.236 273.044L495.811 276.899L506.171 278L531.894 271.392L542.612 273.044L551.544 269.74H559.404L563.691 268.087H570.122H576.552L588.699 269.74H596.559L599.06 268.087L598.345 264.783V260.378L594.415 251.567L596.559 248.813L601.382 251.567H608.349H611.921L614.422 247.161L619.067 245.509L621.568 237.799L614.422 225.133L619.067 222.93L627.284 225.133L633 220.728V209.163L617.638 179.976L606.92 150.789L598.345 141.978L585.127 107.835L576.195 104.531V101.227V91.3141L573.694 73.1412L564.048 62.1272L542.612 68.1849L533.323 57.7217L514.031 81.4016H509.744L500.455 68.1849L494.739 71.4891L489.737 68.1849L466.872 34.5924H459.012L451.51 39.5487L445.079 50.5626L432.575 54.9682L424.358 62.1272L421.142 50.5626L428.645 34.5924L425.787 27.9841L421.142 24.6799L419.356 13.666L413.283 5.40557H407.209H398.635H390.418L387.56 1H381.843L366.838 10.3618L353.977 21.3757H348.618H345.045L342.187 15.8688H337.185L328.611 13.666L321.823 10.3618L315.392 13.666L306.818 18.6223L296.815 15.8688L288.24 13.666L281.809 10.3618H268.948L261.445 13.666L260.374 21.3757L263.232 30.1869L260.374 34.5924H255.372L236.08 21.3757L221.075 24.6799L212.143 21.3757L179.275 27.4334L164.27 30.1869L154.266 27.4334Z" stroke="black"/>
<g filter="url(#filter1_i_799_578)">
<path d="M293.516 126.04C294.98 126.352 296.156 127.084 297.044 128.236C297.932 129.364 298.376 130.66 298.376 132.124C298.376 134.236 297.632 135.916 296.144 137.164C294.68 138.388 292.628 139 289.988 139H278.216V113.728H289.592C292.16 113.728 294.164 114.316 295.604 115.492C297.068 116.668 297.8 118.264 297.8 120.28C297.8 121.768 297.404 123.004 296.612 123.988C295.844 124.972 294.812 125.656 293.516 126.04ZM284.372 123.952H288.404C289.412 123.952 290.18 123.736 290.708 123.304C291.26 122.848 291.536 122.188 291.536 121.324C291.536 120.46 291.26 119.8 290.708 119.344C290.18 118.888 289.412 118.66 288.404 118.66H284.372V123.952ZM288.908 134.032C289.94 134.032 290.732 133.804 291.284 133.348C291.86 132.868 292.148 132.184 292.148 131.296C292.148 130.408 291.848 129.712 291.248 129.208C290.672 128.704 289.868 128.452 288.836 128.452H284.372V134.032H288.908ZM317.679 134.536H308.247L306.735 139H300.291L309.435 113.728H316.563L325.707 139H319.191L317.679 134.536ZM316.095 129.784L312.963 120.532L309.867 129.784H316.095ZM346.67 113.728V118.66H339.974V139H333.818V118.66H327.122V113.728H346.67ZM365.491 134.536H356.059L354.547 139H348.103L357.247 113.728H364.375L373.519 139H367.003L365.491 134.536ZM363.907 129.784L360.775 120.532L357.679 129.784H363.907ZM390.954 139L382.458 127.84V139H376.302V113.728H382.458V124.816L390.882 113.728H398.118L388.326 126.112L398.478 139H390.954ZM427.213 113.728V118.66H420.517V139H414.361V118.66H407.665V113.728H427.213ZM442.254 139.252C439.878 139.252 437.694 138.7 435.702 137.596C433.734 136.492 432.162 134.956 430.986 132.988C429.834 130.996 429.258 128.764 429.258 126.292C429.258 123.82 429.834 121.6 430.986 119.632C432.162 117.664 433.734 116.128 435.702 115.024C437.694 113.92 439.878 113.368 442.254 113.368C444.63 113.368 446.802 113.92 448.77 115.024C450.762 116.128 452.322 117.664 453.45 119.632C454.602 121.6 455.178 123.82 455.178 126.292C455.178 128.764 454.602 130.996 453.45 132.988C452.298 134.956 450.738 136.492 448.77 137.596C446.802 138.7 444.63 139.252 442.254 139.252ZM442.254 133.636C444.27 133.636 445.878 132.964 447.078 131.62C448.302 130.276 448.914 128.5 448.914 126.292C448.914 124.06 448.302 122.284 447.078 120.964C445.878 119.62 444.27 118.948 442.254 118.948C440.214 118.948 438.582 119.608 437.358 120.928C436.158 122.248 435.558 124.036 435.558 126.292C435.558 128.524 436.158 130.312 437.358 131.656C438.582 132.976 440.214 133.636 442.254 133.636ZM473.903 126.04C475.367 126.352 476.543 127.084 477.431 128.236C478.319 129.364 478.763 130.66 478.763 132.124C478.763 134.236 478.019 135.916 476.531 137.164C475.067 138.388 473.015 139 470.375 139H458.603V113.728H469.979C472.547 113.728 474.551 114.316 475.991 115.492C477.455 116.668 478.187 118.264 478.187 120.28C478.187 121.768 477.791 123.004 476.999 123.988C476.231 124.972 475.199 125.656 473.903 126.04ZM464.759 123.952H468.791C469.799 123.952 470.567 123.736 471.095 123.304C471.647 122.848 471.923 122.188 471.923 121.324C471.923 120.46 471.647 119.8 471.095 119.344C470.567 118.888 469.799 118.66 468.791 118.66H464.759V123.952ZM469.295 134.032C470.327 134.032 471.119 133.804 471.671 133.348C472.247 132.868 472.535 132.184 472.535 131.296C472.535 130.408 472.235 129.712 471.635 129.208C471.059 128.704 470.255 128.452 469.223 128.452H464.759V134.032H469.295ZM498.066 134.536H488.634L487.122 139H480.678L489.822 113.728H496.95L506.094 139H499.578L498.066 134.536ZM496.482 129.784L493.35 120.532L490.254 129.784H496.482Z" fill="#FFFDFB"/>
</g>
<defs>
<filter id="filter0_i_799_578" x="0.468658" y="0.5" width="636.031" height="282.007" filterUnits="userSpaceOnUse" color-interpolation-filters="sRGB">
<feFlood flood-opacity="0" result="BackgroundImageFix"/>
<feBlend mode="normal" in="SourceGraphic" in2="BackgroundImageFix" result="shape"/>
<feColorMatrix in="SourceAlpha" type="matrix" values="0 0 0 0 0 0 0 0 0 0 0 0 0 0 0 0 0 0 127 0" result="hardAlpha"/>
<feOffset dx="3" dy="4"/>
<feGaussianBlur stdDeviation="2"/>
<feComposite in2="hardAlpha" operator="arithmetic" k2="-1" k3="1"/>
<feColorMatrix type="matrix" values="0 0 0 0 0 0 0 0 0 0 0 0 0 0 0 0 0 0 0.25 0"/>
<feBlend mode="normal" in2="shape" result="effect1_innerShadow_799_578"/>
</filter>
<filter id="filter1_i_799_578" x="278.216" y="113.368" width="228.877" height="26.8838" filterUnits="userSpaceOnUse" color-interpolation-filters="sRGB">
<feFlood flood-opacity="0" result="BackgroundImageFix"/>
<feBlend mode="normal" in="SourceGraphic" in2="BackgroundImageFix" result="shape"/>
<feColorMatrix in="SourceAlpha" type="matrix" values="0 0 0 0 0 0 0 0 0 0 0 0 0 0 0 0 0 0 127 0" result="hardAlpha"/>
<feOffset dx="1" dy="1"/>
<feGaussianBlur stdDeviation="2"/>
<feComposite in2="hardAlpha" operator="arithmetic" k2="-1" k3="1"/>
<feColorMatrix type="matrix" values="0 0 0 0 0.203922 0 0 0 0 0.203922 0 0 0 0 0.231373 0 0 0 1 0"/>
<feBlend mode="normal" in2="shape" result="effect1_innerShadow_799_578"/>
</filter>
<linearGradient id="paint0_linear_799_578" x1="317" y1="1" x2="317" y2="278" gradientUnits="userSpaceOnUse">
<stop stop-color="#81C780"/>
<stop offset="0.724" stop-color="#135B35"/>
</linearGradient>
</defs>
</svg>
